<svg width="26" height="26" viewBox="0 0 26 26" fill="none" xmlns="http://www.w3.org/2000/svg">
<path d="M0.177717 17.2523L2.83341 21.7503C3.00972 22.0487 3.29984 22.2662 3.63998 22.3552C3.98011 22.4442 4.34242 22.3973 4.64724 22.2248L6.50091 21.177C7.27106 21.7711 8.12221 22.2586 9.01718 22.6226V24.7C9.01718 25.0448 9.15707 25.3754 9.40609 25.6192C9.65511 25.863 9.99286 26 10.345 26H15.6564C16.0086 26 16.3463 25.863 16.5953 25.6192C16.8443 25.3754 16.9842 25.0448 16.9842 24.7V22.6226C17.8862 22.2549 18.7328 21.7686 19.5005 21.177L21.3542 22.2248C21.9876 22.5823 22.8029 22.3678 23.168 21.7503L25.8237 17.2523C25.9985 16.9536 26.0456 16.5993 25.9548 16.2667C25.864 15.9341 25.6427 15.6501 25.339 15.4765L23.5172 14.4456C23.6596 13.4868 23.6587 12.5129 23.5146 11.5544L25.3364 10.5235C25.9684 10.166 26.1875 9.3665 25.821 8.7477L23.1654 4.2497C22.989 3.95135 22.6989 3.73376 22.3588 3.64478C22.0187 3.5558 21.6563 3.60271 21.3515 3.7752L19.4979 4.823C18.7311 4.23069 17.8849 3.74428 16.9829 3.3774V1.3C16.9829 0.955219 16.843 0.624558 16.594 0.380761C16.345 0.136964 16.0072 0 15.6551 0H10.3437C9.99153 0 9.65378 0.136964 9.40477 0.380761C9.15575 0.624558 9.01585 0.955219 9.01585 1.3V3.3774C8.11388 3.74505 7.26733 4.2314 6.49958 4.823L4.64724 3.7752C4.49636 3.68962 4.32971 3.634 4.15685 3.61153C3.98399 3.58906 3.8083 3.60018 3.63983 3.64426C3.47136 3.68833 3.31343 3.76449 3.17505 3.86837C3.03668 3.97226 2.92058 4.10184 2.83341 4.2497L0.177717 8.7477C0.00295647 9.04644 -0.0441667 9.40069 0.0466092 9.73329C0.137385 10.0659 0.358708 10.3499 0.66238 10.5235L2.48418 11.5544C2.34095 12.513 2.34095 13.487 2.48418 14.4456L0.66238 15.4765C0.0303262 15.834 -0.188768 16.6335 0.177717 17.2523V17.2523ZM12.9994 7.8C15.9286 7.8 18.3108 10.1322 18.3108 13C18.3108 15.8678 15.9286 18.2 12.9994 18.2C10.0702 18.2 7.688 15.8678 7.688 13C7.688 10.1322 10.0702 7.8 12.9994 7.8Z" fill="#892CDC"/>
</svg>
