<svg width="26" height="29" viewBox="0 0 26 29" fill="none" xmlns="http://www.w3.org/2000/svg">
<path fill-rule="evenodd" clip-rule="evenodd" d="M0 2.9C0 2.13087 0.316071 1.39325 0.87868 0.84939C1.44129 0.305535 2.20435 0 3 0L19.414 0L26 6.36647V26.1C26 26.8691 25.6839 27.6068 25.1213 28.1506C24.5587 28.6945 23.7956 29 23 29H3C2.20435 29 1.44129 28.6945 0.87868 28.1506C0.316071 27.6068 0 26.8691 0 26.1V2.9ZM12 7.73333H6V9.66667H12V7.73333ZM20 13.5333H6V15.4667H20V13.5333ZM10.61 21.0888C9.802 21.2976 9.17 21.895 8.95 22.5388L7.05 21.9279C7.496 20.6383 8.664 19.5924 10.09 19.2212C11.504 18.8539 13.118 19.1632 14.514 20.4025C14.9191 20.2876 15.3365 20.2182 15.758 20.1956C16.838 20.1395 17.804 20.4025 18.634 20.7369C19.244 20.9825 19.834 21.2918 20.334 21.5528C20.49 21.6379 20.64 21.7152 20.778 21.7848C21.424 22.1135 21.778 22.2333 22 22.2333V24.1667C21.22 24.1667 20.452 23.8032 19.848 23.4977C19.666 23.4049 19.4846 23.3108 19.304 23.2155C18.8369 22.96 18.3562 22.7283 17.864 22.5214C17.196 22.2507 16.538 22.0922 15.866 22.127C15.7656 22.1317 15.6655 22.1407 15.566 22.1541L15.568 22.1811C15.622 22.8075 15.354 23.3237 15.008 23.6949C14.372 24.3793 13.334 24.7389 12.554 24.8743C12.1498 24.9526 11.7354 24.9689 11.326 24.9226C11.0938 24.8939 10.8696 24.8216 10.666 24.7099C10.5077 24.6219 10.3713 24.5012 10.2666 24.3566C10.1619 24.2119 10.0914 24.0467 10.06 23.8728C10.0108 23.5475 10.0901 23.2162 10.282 22.9448C10.4272 22.7386 10.6039 22.5548 10.806 22.3996C11.186 22.0961 11.736 21.7674 12.474 21.4078L12.528 21.3691C12.2444 21.1989 11.9279 21.0863 11.5978 21.0381C11.2677 20.9899 10.931 21.0072 10.608 21.0888H10.61Z" fill="#892CDC"/>
</svg>
