<svg width="26" height="26" viewBox="0 0 26 26" fill="none" xmlns="http://www.w3.org/2000/svg">
<path d="M1.44444 14.4444H10.1111C10.4942 14.4444 10.8616 14.2923 11.1325 14.0214C11.4034 13.7505 11.5556 13.3831 11.5556 13V1.44444C11.5556 1.06135 11.4034 0.693954 11.1325 0.423068C10.8616 0.152182 10.4942 0 10.1111 0H1.44444C1.06135 0 0.693954 0.152182 0.423068 0.423068C0.152182 0.693954 0 1.06135 0 1.44444V13C0 13.3831 0.152182 13.7505 0.423068 14.0214C0.693954 14.2923 1.06135 14.4444 1.44444 14.4444ZM0 24.5556C0 24.9386 0.152182 25.306 0.423068 25.5769C0.693954 25.8478 1.06135 26 1.44444 26H10.1111C10.4942 26 10.8616 25.8478 11.1325 25.5769C11.4034 25.306 11.5556 24.9386 11.5556 24.5556V18.7778C11.5556 18.3947 11.4034 18.0273 11.1325 17.7564C10.8616 17.4855 10.4942 17.3333 10.1111 17.3333H1.44444C1.06135 17.3333 0.693954 17.4855 0.423068 17.7564C0.152182 18.0273 0 18.3947 0 18.7778V24.5556ZM14.4444 24.5556C14.4444 24.9386 14.5966 25.306 14.8675 25.5769C15.1384 25.8478 15.5058 26 15.8889 26H24.5556C24.9386 26 25.306 25.8478 25.5769 25.5769C25.8478 25.306 26 24.9386 26 24.5556V14.4444C26 14.0614 25.8478 13.694 25.5769 13.4231C25.306 13.1522 24.9386 13 24.5556 13H15.8889C15.5058 13 15.1384 13.1522 14.8675 13.4231C14.5966 13.694 14.4444 14.0614 14.4444 14.4444V24.5556ZM15.8889 10.1111H24.5556C24.9386 10.1111 25.306 9.95893 25.5769 9.68804C25.8478 9.41716 26 9.04976 26 8.66667V1.44444C26 1.06135 25.8478 0.693954 25.5769 0.423068C25.306 0.152182 24.9386 0 24.5556 0H15.8889C15.5058 0 15.1384 0.152182 14.8675 0.423068C14.5966 0.693954 14.4444 1.06135 14.4444 1.44444V8.66667C14.4444 9.04976 14.5966 9.41716 14.8675 9.68804C15.1384 9.95893 15.5058 10.1111 15.8889 10.1111Z" fill="#892CDC"/>
</svg>
