<svg width="32" height="24" viewBox="0 0 32 24" fill="none" xmlns="http://www.w3.org/2000/svg">
<path d="M21.7146 20.1818V13.0909H11.3573C11.0542 13.0909 10.7635 12.976 10.5492 12.7714C10.3349 12.5668 10.2145 12.2893 10.2145 12C10.2145 11.7107 10.3349 11.4332 10.5492 11.2286C10.7635 11.024 11.0542 10.9091 11.3573 10.9091H21.7146V3.81818C21.7135 2.80587 21.2917 1.83533 20.5418 1.11952C19.7919 0.403702 18.7751 0.00108288 17.7146 0H4.00007C2.93953 0.00108288 1.92276 0.403702 1.17285 1.11952C0.422933 1.83533 0.00113447 2.80587 0 3.81818V20.1818C0.00113447 21.1941 0.422933 22.1647 1.17285 22.8805C1.92276 23.5963 2.93953 23.9989 4.00007 24H17.7146C18.7751 23.9989 19.7919 23.5963 20.5418 22.8805C21.2917 22.1647 21.7135 21.1941 21.7146 20.1818V20.1818ZM28.0983 13.0909L24.3354 16.6834C24.1301 16.8897 24.0174 17.1643 24.0212 17.4488C24.025 17.7332 24.1451 18.005 24.3558 18.2062C24.5666 18.4074 24.8513 18.522 25.1493 18.5256C25.4473 18.5293 25.7351 18.4216 25.9511 18.2257L31.6655 12.7711C31.8797 12.5666 32 12.2892 32 12C32 11.7108 31.8797 11.4334 31.6655 11.2289L25.9511 5.77432C25.7351 5.57837 25.4473 5.47074 25.1493 5.47438C24.8513 5.47803 24.5666 5.59265 24.3558 5.79382C24.1451 5.99498 24.025 6.26677 24.0212 6.55124C24.0174 6.83571 24.1301 7.11034 24.3354 7.31659L28.0983 10.9091H21.7146V13.0909H28.0983Z" fill="#DC2C4C"/>
</svg>
