<?xml version="1.0" encoding="utf-8"?>
<!-- Generator: Adobe Illustrator 26.0.0, SVG Export Plug-In . SVG Version: 6.00 Build 0)  -->
<svg version="1.1" id="Layer_1" xmlns="http://www.w3.org/2000/svg" xmlns:xlink="http://www.w3.org/1999/xlink" x="0px" y="0px"
	 viewBox="0 0 144 116" style="enable-background:new 0 0 144 116;" xml:space="preserve">
<style type="text/css">
	.st0{fill:#BC6FF1;}
	.st1{fill:#FFFFFF;}
</style>
<polygon class="st0" points="138.1,14.9 138.1,23.1 116.5,38 116.5,27.5 93.3,27.5 93.3,10.6 116.5,10.6 116.5,5.9 125.1,5.9 "/>
<polygon class="st0" points="50.7,88.9 50.7,105.8 27.5,105.8 27.5,110.1 18.4,110.1 5.9,101.4 5.9,93.3 27.5,78.3 27.5,88.9 "/>
<path class="st0" d="M111.5,47.6V32.5l-23.2,0V15.9H5.9v71.3l26.5-18.4v15.1l23.2,0v16.2h82.4V29.2L111.5,47.6z M16.9,43.7V26.3
	h17.4C34.3,35.9,26.5,43.7,16.9,43.7z M72,80.4c-12.4,0-22.5-10-22.5-22.4s10-22.4,22.5-22.4c12.4,0,22.4,10,22.4,22.4
	S84.4,80.4,72,80.4z M127.1,90h-17.4c0-9.6,7.8-17.4,17.4-17.4V90z"/>
<polygon class="st1" points="144,19 138.1,23.1 116.5,38 116.5,27.5 93.3,27.5 93.3,10.6 116.5,10.6 116.5,0 125.1,5.9 138.1,14.9 
	"/>
<polygon class="st1" points="144,19 138.1,23.1 116.5,38 116.5,27.5 93.3,27.5 93.3,10.6 116.5,10.6 116.5,0 125.1,5.9 138.1,14.9 
	"/>
<polygon class="st1" points="50.7,88.9 50.7,105.8 27.5,105.8 27.5,116.4 18.4,110.1 5.9,101.4 0,97.3 5.9,93.3 27.5,78.3 
	27.5,88.9 "/>
<polygon class="st1" points="50.7,88.9 50.7,105.8 27.5,105.8 27.5,116.4 18.4,110.1 5.9,101.4 0,97.3 5.9,93.3 27.5,78.3 
	27.5,88.9 "/>
</svg>
