<svg width="30" height="21" viewBox="0 0 30 21" fill="none" xmlns="http://www.w3.org/2000/svg">
<path d="M28.5 0H1.5C0.671719 0 0 0.671719 0 1.5V19.5C0 20.3283 0.671719 21 1.5 21H28.5C29.3283 21 30 20.3283 30 19.5V1.5C30 0.671719 29.3283 0 28.5 0ZM8.25 13.8694V14.625C8.25 14.8322 8.08219 15 7.875 15H7.125C6.91781 15 6.75 14.8322 6.75 14.625V13.8614C6.22078 13.8342 5.70609 13.6495 5.27953 13.3294C5.09672 13.192 5.08734 12.9183 5.25281 12.7603L5.80359 12.2348C5.93344 12.1111 6.12656 12.1055 6.27844 12.2006C6.45984 12.3141 6.66562 12.375 6.87937 12.375H8.19703C8.50172 12.375 8.75016 12.0975 8.75016 11.7567C8.75016 11.4778 8.58094 11.2322 8.33906 11.16L6.22969 10.5272C5.35828 10.2656 4.74937 9.42938 4.74937 8.49328C4.74937 7.34391 5.64234 6.41016 6.74953 6.38062V5.625C6.74953 5.41781 6.91734 5.25 7.12453 5.25H7.87453C8.08172 5.25 8.24953 5.41781 8.24953 5.625V6.38859C8.77875 6.41578 9.29344 6.6 9.72 6.92062C9.90281 7.05797 9.91219 7.33172 9.74672 7.48969L9.19594 8.01516C9.06609 8.13891 8.87297 8.14453 8.72109 8.04938C8.53969 7.93547 8.33391 7.875 8.12016 7.875H6.8025C6.49781 7.875 6.24938 8.1525 6.24938 8.49328C6.24938 8.77219 6.41859 9.01781 6.66047 9.09L8.76984 9.72281C9.64125 9.98438 10.2502 10.8206 10.2502 11.7567C10.2502 12.9066 9.35719 13.8398 8.25 13.8694ZM19.5 13.125C19.5 13.3322 19.3322 13.5 19.125 13.5H13.875C13.6678 13.5 13.5 13.3322 13.5 13.125V12.375C13.5 12.1678 13.6678 12 13.875 12H19.125C19.3322 12 19.5 12.1678 19.5 12.375V13.125ZM27 13.125C27 13.3322 26.8322 13.5 26.625 13.5H22.875C22.6678 13.5 22.5 13.3322 22.5 13.125V12.375C22.5 12.1678 22.6678 12 22.875 12H26.625C26.8322 12 27 12.1678 27 12.375V13.125ZM27 8.625C27 8.83219 26.8322 9 26.625 9H13.875C13.6678 9 13.5 8.83219 13.5 8.625V7.875C13.5 7.66781 13.6678 7.5 13.875 7.5H26.625C26.8322 7.5 27 7.66781 27 7.875V8.625Z" fill="#892CDC"/>
</svg>
