<svg width="503" height="136" viewBox="0 0 503 136" fill="none" xmlns="http://www.w3.org/2000/svg">
<g clip-path="url(#clip0_3_4)">
<path d="M157.281 17.469V27.0828L132.681 44.5517V32.2414H106.258V12.4276H132.681V6.91724H142.475L157.281 17.469Z" fill="#BC6FF1"/>
<path d="M57.7417 104.228V124.041H31.3195V129.083H20.9556L6.71945 118.883V109.386L31.3195 91.8V104.228H57.7417Z" fill="#BC6FF1"/>
<path d="M126.986 55.8069V38.1034H100.564V18.6414H6.71945V102.234L36.9 80.6621V98.3655H63.3222V117.359H157.167V34.2345L126.986 55.8069ZM19.2472 51.2345V30.8345H39.0639C39.0639 42.0897 30.1806 51.2345 19.2472 51.2345ZM82 94.2621C67.8778 94.2621 56.375 82.5379 56.375 68C56.375 53.4621 67.7639 41.7379 82 41.7379C96.1222 41.7379 107.511 53.4621 107.511 68C107.511 82.5379 96.1222 94.2621 82 94.2621ZM144.753 105.517H124.936C124.936 94.2621 133.819 85.1172 144.753 85.1172V105.517Z" fill="#BC6FF1"/>
<path d="M164 22.2759L157.281 27.0828L132.681 44.5517V32.2414H106.258V12.4276H132.681V0L142.475 6.91724L157.281 17.469L164 22.2759Z" fill="white"/>
<path d="M164 22.2759L157.281 27.0828L132.681 44.5517V32.2414H106.258V12.4276H132.681V0L142.475 6.91724L157.281 17.469L164 22.2759Z" fill="white"/>
<path d="M57.7417 104.228V124.041H31.3194V136.469L20.9556 129.083L6.71944 118.883L0 114.076L6.71944 109.386L31.3194 91.8V104.228H57.7417Z" fill="white"/>
<path d="M57.7417 104.228V124.041H31.3194V136.469L20.9556 129.083L6.71944 118.883L0 114.076L6.71944 109.386L31.3194 91.8V104.228H57.7417Z" fill="white"/>
</g>
<path d="M206.4 104V34H219.4V104H206.4ZM271.134 105C265.667 105 260.634 104.1 256.034 102.3C251.434 100.5 247.434 98 244.034 94.8C240.634 91.5333 238 87.7333 236.134 83.4C234.267 79 233.334 74.2 233.334 69C233.334 63.8 234.267 59.0333 236.134 54.7C238 50.3 240.634 46.5 244.034 43.3C247.434 40.0333 251.434 37.5 256.034 35.7C260.634 33.9 265.634 33 271.034 33C276.5 33 281.5 33.9 286.034 35.7C290.634 37.5 294.634 40.0333 298.034 43.3C301.434 46.5 304.067 50.3 305.934 54.7C307.8 59.0333 308.734 63.8 308.734 69C308.734 74.2 307.8 79 305.934 83.4C304.067 87.8 301.434 91.6 298.034 94.8C294.634 98 290.634 100.5 286.034 102.3C281.5 104.1 276.534 105 271.134 105ZM271.034 93.6C274.567 93.6 277.834 93 280.834 91.8C283.834 90.6 286.434 88.9 288.634 86.7C290.834 84.4333 292.534 81.8333 293.734 78.9C295 75.9 295.634 72.6 295.634 69C295.634 65.4 295 62.1333 293.734 59.2C292.534 56.2 290.834 53.6 288.634 51.4C286.434 49.1333 283.834 47.4 280.834 46.2C277.834 45 274.567 44.4 271.034 44.4C267.5 44.4 264.234 45 261.234 46.2C258.3 47.4 255.7 49.1333 253.434 51.4C251.234 53.6 249.5 56.2 248.234 59.2C247.034 62.1333 246.434 65.4 246.434 69C246.434 72.5333 247.034 75.8 248.234 78.8C249.5 81.8 251.234 84.4333 253.434 86.7C255.634 88.9 258.234 90.6 261.234 91.8C264.234 93 267.5 93.6 271.034 93.6ZM352.613 105C343.013 105 335.48 102.3 330.013 96.9C324.613 91.5 321.913 83.7 321.913 73.5V34H334.913V73C334.913 80.2 336.447 85.4333 339.513 88.7C342.647 91.9667 347.047 93.6 352.713 93.6C358.38 93.6 362.747 91.9667 365.813 88.7C368.88 85.4333 370.413 80.2 370.413 73V34H383.213V73.5C383.213 83.7 380.48 91.5 375.013 96.9C369.613 102.3 362.147 105 352.613 105Z" fill="#892CDC"/>
<path d="M402.62 104.5C401.153 104.5 399.886 103.967 398.82 102.9C397.82 101.833 397.32 100.533 397.32 99C397.32 97.4 397.82 96.1 398.82 95.1C399.886 94.1 401.153 93.6 402.62 93.6C404.086 93.6 405.32 94.1 406.32 95.1C407.386 96.1 407.92 97.4 407.92 99C407.92 100.533 407.386 101.833 406.32 102.9C405.32 103.967 404.086 104.5 402.62 104.5ZM423.111 104V51.5H430.211V104H423.111ZM426.711 39.9C425.244 39.9 424.011 39.4 423.011 38.4C422.011 37.4 421.511 36.2 421.511 34.8C421.511 33.4 422.011 32.2333 423.011 31.3C424.011 30.3 425.244 29.8 426.711 29.8C428.178 29.8 429.411 30.2667 430.411 31.2C431.411 32.1333 431.911 33.3 431.911 34.7C431.911 36.1667 431.411 37.4 430.411 38.4C429.478 39.4 428.244 39.9 426.711 39.9ZM471.366 104.5C466.3 104.5 461.733 103.367 457.666 101.1C453.666 98.7667 450.5 95.6 448.166 91.6C445.833 87.5333 444.666 82.9 444.666 77.7C444.666 72.4333 445.833 67.8 448.166 63.8C450.5 59.8 453.666 56.6667 457.666 54.4C461.666 52.1333 466.233 51 471.366 51C476.566 51 481.166 52.1333 485.166 54.4C489.233 56.6667 492.4 59.8 494.666 63.8C497 67.8 498.166 72.4333 498.166 77.7C498.166 82.9 497 87.5333 494.666 91.6C492.4 95.6 489.233 98.7667 485.166 101.1C481.1 103.367 476.5 104.5 471.366 104.5ZM471.366 98.2C475.166 98.2 478.533 97.3667 481.466 95.7C484.4 93.9667 486.7 91.5667 488.366 88.5C490.1 85.3667 490.966 81.7667 490.966 77.7C490.966 73.5667 490.1 69.9667 488.366 66.9C486.7 63.8333 484.4 61.4667 481.466 59.8C478.533 58.0667 475.2 57.2 471.466 57.2C467.733 57.2 464.4 58.0667 461.466 59.8C458.533 61.4667 456.2 63.8333 454.466 66.9C452.733 69.9667 451.866 73.5667 451.866 77.7C451.866 81.7667 452.733 85.3667 454.466 88.5C456.2 91.5667 458.533 93.9667 461.466 95.7C464.4 97.3667 467.7 98.2 471.366 98.2Z" fill="white"/>
<defs>
<clipPath id="clip0_3_4">
<rect width="164" height="136" fill="white"/>
</clipPath>
</defs>
</svg>
