<?xml version="1.0" encoding="UTF-8"?>
<svg width="1200pt" height="1200pt" version="1.1" viewBox="0 0 1200 1200" xmlns="http://www.w3.org/2000/svg">
 <g fill="#fff">
  <path d="m1027.3 571.71-664.02-288.83 83.375 288.83zm-580.64 59.555-83.375 285.86 664.02-285.86zm-116.13-425.8 851.61 369.23c23.82 8.9336 23.82 41.688 0 53.598l-851.61 366.25c-20.844 11.91-47.645-8.9336-41.688-32.754l104.22-360.3-104.22-360.3c-5.957-23.82 17.867-47.645 41.688-35.73z"/>
  <path d="m196.53 800.99c14.887 0 29.777 14.887 29.777 29.777 0 17.867-14.887 29.777-29.777 29.777h-166.75c-17.867 0-29.777-11.91-29.777-29.777 0-14.887 11.91-29.777 29.777-29.777z"/>
  <path d="m241.19 571.71c17.867 0 29.777 11.91 29.777 29.777 0 14.887-11.91 29.777-29.777 29.777h-163.77c-17.867 0-29.777-14.887-29.777-29.777 0-17.867 11.91-29.777 29.777-29.777z"/>
  <path d="m196.53 339.45c14.887 0 29.777 11.91 29.777 29.777 0 17.867-14.887 29.777-29.777 29.777h-166.75c-17.867 0-29.777-11.91-29.777-29.777 0-17.867 11.91-29.777 29.777-29.777z"/>
 </g>
</svg>
