<svg width="32" height="17" viewBox="0 0 32 17" fill="none" xmlns="http://www.w3.org/2000/svg">
<path d="M28.8 7.72727C28.4153 7.72993 28.0343 7.79956 27.6752 7.93282L23.8384 4.89909C23.9328 4.56836 24 4.22527 24 3.86364C24 1.72164 22.2176 0 20 0C17.7824 0 16 1.72164 16 3.86364C16 4.47564 16.16 5.04591 16.4192 5.559L11.7648 10.8723C11.5785 10.8386 11.3895 10.8205 11.2 10.8182C10.9136 10.8182 10.6432 10.8645 10.3808 10.9325L6.28 6.97154C6.352 6.71964 6.4 6.45845 6.4 6.18182C6.4 4.46945 4.9728 3.09091 3.2 3.09091C1.4272 3.09091 0 4.46945 0 6.18182C0 7.89418 1.4272 9.27273 3.2 9.27273C3.4864 9.27273 3.7568 9.22636 4.0192 9.15836L8.12 13.1194C8.04309 13.3761 8.00272 13.6418 8 13.9091C8 15.6215 9.4272 17 11.2 17C12.9728 17 14.4 15.6215 14.4 13.9091C14.4 13.5428 14.3232 13.1982 14.2032 12.8721L18.864 7.55264C19.2272 7.65464 19.6032 7.72727 20 7.72727C20.6314 7.7239 21.2529 7.57502 21.8128 7.293L25.6512 10.3267C25.6211 10.489 25.604 10.6533 25.6 10.8182C25.6 12.5305 27.0272 13.9091 28.8 13.9091C30.5728 13.9091 32 12.5305 32 10.8182C32 9.10582 30.5728 7.72727 28.8 7.72727Z" fill="#892CDC"/>
</svg>
